<mxfile host="app.diagrams.net" modified="2024-05-21T14:20:04.325Z" agent="Mozilla/5.0 (Windows NT 10.0; Win64; x64) AppleWebKit/537.36 (KHTML, like Gecko) Chrome/125.0.0.0 Safari/537.36" etag="ax1lSFbQdmUfg8FIyCE0" version="24.4.4" type="device">
  <diagram id="C5RBs43oDa-KdzZeNtuy" name="Page-1">
    <mxGraphModel dx="3088" dy="738" grid="1" gridSize="10" guides="1" tooltips="1" connect="1" arrows="1" fold="1" page="1" pageScale="1" pageWidth="827" pageHeight="1169" math="0" shadow="0">
      <root>
        <mxCell id="WIyWlLk6GJQsqaUBKTNV-0" />
        <mxCell id="WIyWlLk6GJQsqaUBKTNV-1" parent="WIyWlLk6GJQsqaUBKTNV-0" />
        <mxCell id="9dPn4TwAgrySOQr-LFBz-0" value="&lt;font style=&quot;font-size: 16px;&quot;&gt;&lt;b&gt;Vehicle&lt;/b&gt;&lt;/font&gt;" style="rounded=0;whiteSpace=wrap;html=1;" vertex="1" parent="WIyWlLk6GJQsqaUBKTNV-1">
          <mxGeometry x="-1510" y="60" width="140" height="30" as="geometry" />
        </mxCell>
        <mxCell id="9dPn4TwAgrySOQr-LFBz-1" value="&lt;font style=&quot;font-size: 16px;&quot;&gt;&lt;b&gt;Customer&lt;/b&gt;&lt;/font&gt;" style="rounded=0;whiteSpace=wrap;html=1;" vertex="1" parent="WIyWlLk6GJQsqaUBKTNV-1">
          <mxGeometry x="-1210" y="150" width="120" height="30" as="geometry" />
        </mxCell>
        <mxCell id="9dPn4TwAgrySOQr-LFBz-2" value="&lt;font style=&quot;font-size: 16px;&quot;&gt;&lt;b&gt;Order&lt;/b&gt;&lt;/font&gt;" style="rounded=0;whiteSpace=wrap;html=1;" vertex="1" parent="WIyWlLk6GJQsqaUBKTNV-1">
          <mxGeometry x="-1500" y="240" width="120" height="30" as="geometry" />
        </mxCell>
        <mxCell id="9dPn4TwAgrySOQr-LFBz-3" value="Customer&lt;div&gt;Vehicle Ordered&lt;/div&gt;&lt;div&gt;Created Date&lt;/div&gt;&lt;div&gt;Number Ordered&lt;/div&gt;&lt;div&gt;Paid&lt;/div&gt;" style="rounded=0;whiteSpace=wrap;html=1;" vertex="1" parent="WIyWlLk6GJQsqaUBKTNV-1">
          <mxGeometry x="-1500" y="270" width="120" height="90" as="geometry" />
        </mxCell>
        <mxCell id="9dPn4TwAgrySOQr-LFBz-6" value="Type&lt;div&gt;Number in Stock&lt;/div&gt;" style="rounded=0;whiteSpace=wrap;html=1;" vertex="1" parent="WIyWlLk6GJQsqaUBKTNV-1">
          <mxGeometry x="-1510" y="90" width="140" height="40" as="geometry" />
        </mxCell>
        <mxCell id="9dPn4TwAgrySOQr-LFBz-7" value="Name&lt;div&gt;Vehicles Owned&lt;/div&gt;" style="rounded=0;whiteSpace=wrap;html=1;" vertex="1" parent="WIyWlLk6GJQsqaUBKTNV-1">
          <mxGeometry x="-1210" y="180" width="120" height="60" as="geometry" />
        </mxCell>
        <mxCell id="9dPn4TwAgrySOQr-LFBz-13" value="" style="endArrow=none;html=1;rounded=0;entryX=0.5;entryY=1;entryDx=0;entryDy=0;exitX=0.5;exitY=0;exitDx=0;exitDy=0;" edge="1" parent="WIyWlLk6GJQsqaUBKTNV-1" source="9dPn4TwAgrySOQr-LFBz-2" target="9dPn4TwAgrySOQr-LFBz-6">
          <mxGeometry width="50" height="50" relative="1" as="geometry">
            <mxPoint x="-1510" y="230" as="sourcePoint" />
            <mxPoint x="-1460" y="180" as="targetPoint" />
          </mxGeometry>
        </mxCell>
        <mxCell id="9dPn4TwAgrySOQr-LFBz-14" value="" style="endArrow=none;html=1;rounded=0;exitX=1;exitY=0.5;exitDx=0;exitDy=0;entryX=0;entryY=0.5;entryDx=0;entryDy=0;" edge="1" parent="WIyWlLk6GJQsqaUBKTNV-1" source="9dPn4TwAgrySOQr-LFBz-3" target="9dPn4TwAgrySOQr-LFBz-7">
          <mxGeometry width="50" height="50" relative="1" as="geometry">
            <mxPoint x="-1350" y="290" as="sourcePoint" />
            <mxPoint x="-1300" y="240" as="targetPoint" />
          </mxGeometry>
        </mxCell>
      </root>
    </mxGraphModel>
  </diagram>
</mxfile>
